<svg xmlns="http://www.w3.org/2000/svg" viewBox="0 0 52 65" x="0px" y="0px"><title>mobile-phone</title><path d="M9,15h9V13H8a1,1,0,0,0-1,1v6H9Z"/><path d="M43,35H34v2H44a1,1,0,0,0,1-1V30H43Z"/><path d="M44,13H34v2h9v5h2V14A1,1,0,0,0,44,13Z"/><path d="M38,39.5a.5.5,0,0,1-.5.5h-23a.5.5,0,0,1-.5-.5V39H12v5a6,6,0,0,0,6,6H34a6,6,0,0,0,6-6V39H38Zm-9.58,5.62a2.46,2.46,0,0,1-1.8,1.8,2.5,2.5,0,0,1-3-3,2.46,2.46,0,0,1,1.8-1.8A2.5,2.5,0,0,1,28.42,45.12Z"/><rect x="38" y="17" width="2" height="16"/><path d="M14,10.5a.5.5,0,0,1,.5-.5h23a.5.5,0,0,1,.5.5V11h2V8a6,6,0,0,0-6-6H18a6,6,0,0,0-6,6v3h2ZM23.5,6h5a.5.5,0,0,1,0,1h-5a.5.5,0,0,1,0-1Z"/><rect x="12" y="17" width="2" height="16"/><path d="M18,35H9V30H7v6a1,1,0,0,0,1,1H18Z"/><rect x="25" y="20" width="2" height="10"/><rect x="29" y="20" width="2" height="10"/><rect x="32" y="20" width="2" height="10"/><rect x="22" y="20" width="2" height="10"/><rect x="18" y="20" width="2" height="10"/></svg>